<?xml version="1.0" encoding="UTF-8"?>
<svg width="80px" height="80px" viewBox="0 0 80 80" version="1.1" xmlns="http://www.w3.org/2000/svg" xmlns:xlink="http://www.w3.org/1999/xlink">
    <!-- Generator: Sketch 52.5 (67469) - http://www.bohemiancoding.com/sketch -->
    <title>shutterstock_509408074</title>
    <desc>Created with Sketch.</desc>
    <g id="Page-1" stroke="none" stroke-width="1" fill="none" fill-rule="evenodd">
        <g id="shutterstock_509408074" transform="translate(-857.000000, -255.000000)">
            <polygon id="Fill-1" fill="#FFFFFF" points="-6 999.96 993.94 999.96 993.94 0 -6 0"></polygon>
            <path d="M905.953,296.392 C903.39,297.687 900.502,298.433 897.434,298.433 C894.404,298.433 891.553,297.704 889.014,296.439 C874.34,300.239 863.5,313.569 863.5,329.433 L931.662,329.433 C931.662,313.5 920.727,300.124 905.953,296.392" id="Fill-268" fill="#1BB7EA"></path>
            <polyline id="Fill-269" fill="#1F4254" points="906.5 302.433 888.5 302.433 894.5 311.433 888.5 329.433 906.5 329.433 900.5 311.433 906.5 302.433"></polyline>
            <path d="M916.368,279.5 C916.368,289.957 907.891,298.433 897.434,298.433 C886.977,298.433 878.5,289.957 878.5,279.5 C878.5,269.044 886.977,260.566 897.434,260.566 C907.891,260.566 916.368,269.044 916.368,279.5" id="Fill-270" fill="#C5CED3"></path>
        </g>
    </g>
</svg>