<?xml version="1.0" encoding="UTF-8"?>
<svg width="100px" height="100px" viewBox="0 0 100 100" version="1.1" xmlns="http://www.w3.org/2000/svg" xmlns:xlink="http://www.w3.org/1999/xlink">
    <!-- Generator: Sketch 52.5 (67469) - http://www.bohemiancoding.com/sketch -->
    <title>shutterstock_509408074</title>
    <desc>Created with Sketch.</desc>
    <g id="Page-1" stroke="none" stroke-width="1" fill="none" fill-rule="evenodd">
        <g id="shutterstock_509408074" transform="translate(-847.000000, -50.000000)">
            <polygon id="Fill-1" fill="#FFFFFF" points="-39 1031.96 960.94 1031.96 960.94 32 -39 32"></polygon>
            <polyline id="Fill-341" fill="#1BB7EA" points="898.018 59.785 856.581 84.872 856.581 89.872 939.581 89.872 939.581 84.872 898.018 59.785"></polyline>
            <polygon id="Fill-342" fill="#C5CED3" points="852.581 138.872 942.581 138.872 942.581 133.872 852.581 133.872"></polygon>
            <polyline id="Fill-343" fill="#DADEE0" points="927.144 128.872 927.144 94.872 916.144 94.872 916.144 128.872 903.144 128.872 903.144 94.872 892.144 94.872 892.144 128.872 879.144 128.872 879.144 94.872 868.144 94.872 868.144 128.872 857.581 128.872 857.581 133.872 937.581 133.872 937.581 128.872 927.144 128.872"></polyline>
            <polygon id="Fill-344" fill="#C5CED3" points="864.581 94.872 882.581 94.872 882.581 89.872 864.581 89.872"></polygon>
            <polygon id="Fill-345" fill="#C5CED3" points="888.581 94.872 906.581 94.872 906.581 89.872 888.581 89.872"></polygon>
            <polygon id="Fill-346" fill="#C5CED3" points="912.581 94.872 930.581 94.872 930.581 89.872 912.581 89.872"></polygon>
            <path d="M903.128,71.099 C904.297,72.35 905.018,74.025 905.018,75.872 C905.018,79.737 901.883,82.872 898.018,82.872 C896.325,82.872 894.774,82.271 893.563,81.272 L902.163,89.872 L921.899,89.872 L903.128,71.099" id="Fill-347" fill="#1CA6D4"></path>
            <path d="M905.018,75.872 C905.018,79.737 901.883,82.872 898.018,82.872 C894.15,82.872 891.018,79.737 891.018,75.872 C891.018,72.006 894.15,68.872 898.018,68.872 C901.883,68.872 905.018,72.006 905.018,75.872" id="Fill-348" fill="#1F4254"></path>
        </g>
    </g>
</svg>