<?xml version="1.0" encoding="UTF-8"?>
<svg width="100px" height="100px" viewBox="0 0 100 100" version="1.1" xmlns="http://www.w3.org/2000/svg" xmlns:xlink="http://www.w3.org/1999/xlink">
    <!-- Generator: Sketch 52.5 (67469) - http://www.bohemiancoding.com/sketch -->
    <title>shutterstock_509408074</title>
    <desc>Created with Sketch.</desc>
    <g id="Page-1" stroke="none" stroke-width="1" fill="none" fill-rule="evenodd">
        <g id="shutterstock_509408074" transform="translate(-248.000000, -842.000000)">
            <polygon id="Fill-1" fill="#FFFFFF" points="-39 1031.96 960.94 1031.96 960.94 32 -39 32"></polygon>
            <path d="M293.946,917.193 C294.268,916.787 294.589,916.41 294.9,916.1 L330.558,880.443 L329.274,879.16 C329.178,879.062 329.057,879.018 328.921,879.016 C328.785,879.018 328.665,879.065 328.568,879.16 L316.5,891.227 C315.915,891.813 314.965,891.813 314.379,891.227 C313.793,890.643 313.793,889.691 314.379,889.106 L326.446,877.039 C327.126,876.357 328.032,876.014 328.921,876.016 C329.81,876.014 330.715,876.357 331.396,877.039 L332.679,878.32 L334.182,876.818 C335.301,875.699 336.93,875.398 338.336,875.889 L338.336,868.65 C338.336,865.352 335.636,862.65 332.336,862.65 L263.336,862.65 C260.037,862.65 257.336,865.352 257.336,868.65 L257.336,912.65 C257.336,915.951 260.037,918.65 263.336,918.65 L292.897,918.65 C293.237,918.137 293.59,917.641 293.946,917.193" id="Fill-321" fill="#DADEE0"></path>
            <path d="M272.336,879.15 L311.336,879.15 C312.165,879.15 312.836,878.479 312.836,877.65 C312.836,876.822 312.165,876.15 311.336,876.15 L272.336,876.15 C271.508,876.15 270.836,876.822 270.836,877.65 C270.836,878.479 271.508,879.15 272.336,879.15" id="Fill-322" fill="#A4ABB1"></path>
            <path d="M272.336,889.15 L304.336,889.15 C305.165,889.15 305.836,888.479 305.836,887.65 C305.836,886.822 305.165,886.15 304.336,886.15 L272.336,886.15 C271.508,886.15 270.836,886.822 270.836,887.65 C270.836,888.479 271.508,889.15 272.336,889.15" id="Fill-323" fill="#A4ABB1"></path>
            <path d="M272.336,899.15 L288.336,899.15 C289.165,899.15 289.836,898.479 289.836,897.65 C289.836,896.822 289.165,896.15 288.336,896.15 L272.336,896.15 C271.508,896.15 270.836,896.822 270.836,897.65 C270.836,898.479 271.508,899.15 272.336,899.15" id="Fill-324" fill="#A4ABB1"></path>
            <path d="M336.201,892.775 L327.213,883.787 L294.9,916.1 C294.589,916.41 294.268,916.787 293.946,917.193 L302.793,926.041 C303.2,925.719 303.578,925.397 303.888,925.086 L336.201,892.775" id="Fill-325" fill="#1F4254"></path>
            <path d="M328.921,879.016 C329.057,879.018 329.178,879.062 329.274,879.16 L330.558,880.443 L332.679,878.32 L331.396,877.039 C330.715,876.357 329.81,876.014 328.921,876.016 C328.032,876.014 327.126,876.357 326.446,877.039 L314.379,889.106 C313.793,889.691 313.793,890.643 314.379,891.227 C314.965,891.813 315.915,891.813 316.5,891.227 L328.568,879.16 C328.665,879.065 328.785,879.018 328.921,879.016" id="Fill-326" fill="#1F4254"></path>
            <path d="M290.807,922.723 L288.843,928.613 C288.148,930.701 289.286,931.84 291.373,931.145 L297.265,929.18 C298.936,928.623 301.167,927.332 302.793,926.041 L293.946,917.193 C292.655,918.82 291.364,921.051 290.807,922.723" id="Fill-327" fill="#1BB7EA"></path>
            <path d="M343.17,885.805 C344.726,884.25 344.725,881.703 343.17,880.148 L339.838,876.816 C338.284,875.262 335.738,875.262 334.182,876.818 L327.213,883.787 L336.201,892.775 L343.17,885.805" id="Fill-328" fill="#1BB7EA"></path>
            <path d="M336.201,892.775 L310.325,918.65 L332.336,918.65 C335.636,918.65 338.336,915.951 338.336,912.65 L338.336,890.639 L336.201,892.775" id="Fill-329" fill="#C7CED2"></path>
        </g>
    </g>
</svg>